<svg width="75" height="15" viewBox="0 0 75 15" fill="none" xmlns="http://www.w3.org/2000/svg">
<mask id="path-1-outside-1_453_214" maskUnits="userSpaceOnUse" x="-0.797119" y="-0.799988" width="75" height="16" fill="black">
<rect fill="white" x="-0.797119" y="-0.799988" width="75" height="16"/>
<path d="M5.18288 14.68C4.19621 14.68 3.32955 14.5 2.58288 14.14C1.84955 13.78 1.26955 13.2667 0.842881 12.6C0.429548 11.9333 0.216214 11.14 0.202881 10.22H2.44288C2.45621 10.9267 2.69621 11.5333 3.16288 12.04C3.64288 12.5333 4.30955 12.78 5.16288 12.78C5.94955 12.78 6.56288 12.6 7.00288 12.24C7.44288 11.8667 7.66288 11.3867 7.66288 10.8C7.66288 10.3067 7.52955 9.90001 7.26288 9.58001C7.00955 9.24668 6.60955 8.95335 6.06288 8.70001C5.51621 8.43335 4.80955 8.16001 3.94288 7.88001C2.78288 7.50668 1.92955 6.99335 1.38288 6.34001C0.836214 5.67335 0.562881 4.86001 0.562881 3.90001C0.562881 2.79335 0.962881 1.90001 1.76288 1.22001C2.56288 0.540012 3.66288 0.200012 5.06288 0.200012C6.42288 0.200012 7.51621 0.553345 8.34288 1.26001C9.16955 1.95334 9.59621 2.92001 9.62288 4.16001H7.36288C7.36288 3.82668 7.26955 3.50668 7.08288 3.20001C6.89621 2.88001 6.62955 2.62001 6.28288 2.42001C5.93621 2.20668 5.50955 2.10001 5.00288 2.10001C4.37621 2.08668 3.84955 2.24001 3.42288 2.56001C2.99621 2.86668 2.78288 3.28668 2.78288 3.82001C2.78288 4.47335 3.04288 4.98668 3.56288 5.36001C4.08288 5.72001 4.92955 6.09335 6.10288 6.48001C6.83621 6.72001 7.48288 7.01335 8.04288 7.36001C8.61621 7.69335 9.06288 8.12668 9.38288 8.66001C9.71622 9.18001 9.88288 9.84668 9.88288 10.66C9.88288 11.4067 9.69621 12.0867 9.32288 12.7C8.94955 13.3 8.40955 13.78 7.70288 14.14C7.00955 14.5 6.16955 14.68 5.18288 14.68Z"/>
<path d="M16.4551 14.44V0.440012H21.1951C22.2617 0.440012 23.1417 0.626678 23.8351 1.00001C24.5284 1.36001 25.0417 1.86001 25.3751 2.50001C25.7084 3.14001 25.8751 3.87335 25.8751 4.70001C25.8751 5.52668 25.7084 6.26001 25.3751 6.90001C25.0417 7.54001 24.5284 8.04668 23.8351 8.42001C23.1417 8.78001 22.2617 8.96001 21.1951 8.96001H18.5751V14.44H16.4551ZM18.5751 7.06001H21.0951C22.0017 7.06001 22.6617 6.84668 23.0751 6.42001C23.5017 5.99335 23.7151 5.42001 23.7151 4.70001C23.7151 3.99335 23.5017 3.42668 23.0751 3.00001C22.6617 2.56001 22.0017 2.34001 21.0951 2.34001H18.5751V7.06001Z"/>
<path d="M37.0273 14.68C35.8939 14.68 34.9139 14.3867 34.0873 13.8C33.2606 13.2133 32.6273 12.38 32.1873 11.3C31.7473 10.22 31.5273 8.93335 31.5273 7.44001C31.5273 5.94668 31.7473 4.66001 32.1873 3.58001C32.6273 2.50001 33.2606 1.66668 34.0873 1.08001C34.9139 0.493345 35.8939 0.200012 37.0273 0.200012C38.1739 0.200012 39.1539 0.493345 39.9673 1.08001C40.7939 1.66668 41.4273 2.50001 41.8673 3.58001C42.3073 4.66001 42.5273 5.94668 42.5273 7.44001C42.5273 8.93335 42.3073 10.22 41.8673 11.3C41.4273 12.38 40.7939 13.2133 39.9673 13.8C39.1539 14.3867 38.1739 14.68 37.0273 14.68ZM37.0273 12.68C38.0273 12.68 38.8339 12.2333 39.4473 11.34C40.0606 10.4333 40.3673 9.13335 40.3673 7.44001C40.3673 5.74668 40.0606 4.45335 39.4473 3.56001C38.8339 2.65334 38.0273 2.20001 37.0273 2.20001C36.0139 2.20001 35.2006 2.65334 34.5873 3.56001C33.9873 4.45335 33.6873 5.74668 33.6873 7.44001C33.6873 9.13335 33.9873 10.4333 34.5873 11.34C35.2006 12.2333 36.0139 12.68 37.0273 12.68Z"/>
<path d="M51.9594 14.44V2.34001H48.1994V0.440012H57.8394V2.34001H54.0794V14.44H51.9594Z"/>
<path d="M69.1516 14.68C68.165 14.68 67.2983 14.5 66.5516 14.14C65.8183 13.78 65.2383 13.2667 64.8116 12.6C64.3983 11.9333 64.185 11.14 64.1716 10.22H66.4116C66.425 10.9267 66.665 11.5333 67.1316 12.04C67.6116 12.5333 68.2783 12.78 69.1316 12.78C69.9183 12.78 70.5316 12.6 70.9716 12.24C71.4116 11.8667 71.6316 11.3867 71.6316 10.8C71.6316 10.3067 71.4983 9.90001 71.2316 9.58001C70.9783 9.24668 70.5783 8.95335 70.0316 8.70001C69.485 8.43335 68.7783 8.16001 67.9116 7.88001C66.7516 7.50668 65.8983 6.99335 65.3516 6.34001C64.805 5.67335 64.5316 4.86001 64.5316 3.90001C64.5316 2.79335 64.9316 1.90001 65.7316 1.22001C66.5316 0.540012 67.6316 0.200012 69.0316 0.200012C70.3916 0.200012 71.485 0.553345 72.3116 1.26001C73.1383 1.95334 73.565 2.92001 73.5916 4.16001H71.3316C71.3316 3.82668 71.2383 3.50668 71.0516 3.20001C70.865 2.88001 70.5983 2.62001 70.2516 2.42001C69.905 2.20668 69.4783 2.10001 68.9716 2.10001C68.345 2.08668 67.8183 2.24001 67.3916 2.56001C66.965 2.86668 66.7516 3.28668 66.7516 3.82001C66.7516 4.47335 67.0116 4.98668 67.5316 5.36001C68.0516 5.72001 68.8983 6.09335 70.0716 6.48001C70.805 6.72001 71.4516 7.01335 72.0116 7.36001C72.585 7.69335 73.0316 8.12668 73.3516 8.66001C73.685 9.18001 73.8516 9.84668 73.8516 10.66C73.8516 11.4067 73.665 12.0867 73.2916 12.7C72.9183 13.3 72.3783 13.78 71.6716 14.14C70.9783 14.5 70.1383 14.68 69.1516 14.68Z"/>
</mask>
<path d="M5.18288 14.68C4.19621 14.68 3.32955 14.5 2.58288 14.14C1.84955 13.78 1.26955 13.2667 0.842881 12.6C0.429548 11.9333 0.216214 11.14 0.202881 10.22H2.44288C2.45621 10.9267 2.69621 11.5333 3.16288 12.04C3.64288 12.5333 4.30955 12.78 5.16288 12.78C5.94955 12.78 6.56288 12.6 7.00288 12.24C7.44288 11.8667 7.66288 11.3867 7.66288 10.8C7.66288 10.3067 7.52955 9.90001 7.26288 9.58001C7.00955 9.24668 6.60955 8.95335 6.06288 8.70001C5.51621 8.43335 4.80955 8.16001 3.94288 7.88001C2.78288 7.50668 1.92955 6.99335 1.38288 6.34001C0.836214 5.67335 0.562881 4.86001 0.562881 3.90001C0.562881 2.79335 0.962881 1.90001 1.76288 1.22001C2.56288 0.540012 3.66288 0.200012 5.06288 0.200012C6.42288 0.200012 7.51621 0.553345 8.34288 1.26001C9.16955 1.95334 9.59621 2.92001 9.62288 4.16001H7.36288C7.36288 3.82668 7.26955 3.50668 7.08288 3.20001C6.89621 2.88001 6.62955 2.62001 6.28288 2.42001C5.93621 2.20668 5.50955 2.10001 5.00288 2.10001C4.37621 2.08668 3.84955 2.24001 3.42288 2.56001C2.99621 2.86668 2.78288 3.28668 2.78288 3.82001C2.78288 4.47335 3.04288 4.98668 3.56288 5.36001C4.08288 5.72001 4.92955 6.09335 6.10288 6.48001C6.83621 6.72001 7.48288 7.01335 8.04288 7.36001C8.61621 7.69335 9.06288 8.12668 9.38288 8.66001C9.71622 9.18001 9.88288 9.84668 9.88288 10.66C9.88288 11.4067 9.69621 12.0867 9.32288 12.7C8.94955 13.3 8.40955 13.78 7.70288 14.14C7.00955 14.5 6.16955 14.68 5.18288 14.68Z" fill="#212121"/>
<path d="M16.4551 14.44V0.440012H21.1951C22.2617 0.440012 23.1417 0.626678 23.8351 1.00001C24.5284 1.36001 25.0417 1.86001 25.3751 2.50001C25.7084 3.14001 25.8751 3.87335 25.8751 4.70001C25.8751 5.52668 25.7084 6.26001 25.3751 6.90001C25.0417 7.54001 24.5284 8.04668 23.8351 8.42001C23.1417 8.78001 22.2617 8.96001 21.1951 8.96001H18.5751V14.44H16.4551ZM18.5751 7.06001H21.0951C22.0017 7.06001 22.6617 6.84668 23.0751 6.42001C23.5017 5.99335 23.7151 5.42001 23.7151 4.70001C23.7151 3.99335 23.5017 3.42668 23.0751 3.00001C22.6617 2.56001 22.0017 2.34001 21.0951 2.34001H18.5751V7.06001Z" fill="#212121"/>
<path d="M37.0273 14.68C35.8939 14.68 34.9139 14.3867 34.0873 13.8C33.2606 13.2133 32.6273 12.38 32.1873 11.3C31.7473 10.22 31.5273 8.93335 31.5273 7.44001C31.5273 5.94668 31.7473 4.66001 32.1873 3.58001C32.6273 2.50001 33.2606 1.66668 34.0873 1.08001C34.9139 0.493345 35.8939 0.200012 37.0273 0.200012C38.1739 0.200012 39.1539 0.493345 39.9673 1.08001C40.7939 1.66668 41.4273 2.50001 41.8673 3.58001C42.3073 4.66001 42.5273 5.94668 42.5273 7.44001C42.5273 8.93335 42.3073 10.22 41.8673 11.3C41.4273 12.38 40.7939 13.2133 39.9673 13.8C39.1539 14.3867 38.1739 14.68 37.0273 14.68ZM37.0273 12.68C38.0273 12.68 38.8339 12.2333 39.4473 11.34C40.0606 10.4333 40.3673 9.13335 40.3673 7.44001C40.3673 5.74668 40.0606 4.45335 39.4473 3.56001C38.8339 2.65334 38.0273 2.20001 37.0273 2.20001C36.0139 2.20001 35.2006 2.65334 34.5873 3.56001C33.9873 4.45335 33.6873 5.74668 33.6873 7.44001C33.6873 9.13335 33.9873 10.4333 34.5873 11.34C35.2006 12.2333 36.0139 12.68 37.0273 12.68Z" fill="#212121"/>
<path d="M51.9594 14.44V2.34001H48.1994V0.440012H57.8394V2.34001H54.0794V14.44H51.9594Z" fill="#212121"/>
<path d="M69.1516 14.68C68.165 14.68 67.2983 14.5 66.5516 14.14C65.8183 13.78 65.2383 13.2667 64.8116 12.6C64.3983 11.9333 64.185 11.14 64.1716 10.22H66.4116C66.425 10.9267 66.665 11.5333 67.1316 12.04C67.6116 12.5333 68.2783 12.78 69.1316 12.78C69.9183 12.78 70.5316 12.6 70.9716 12.24C71.4116 11.8667 71.6316 11.3867 71.6316 10.8C71.6316 10.3067 71.4983 9.90001 71.2316 9.58001C70.9783 9.24668 70.5783 8.95335 70.0316 8.70001C69.485 8.43335 68.7783 8.16001 67.9116 7.88001C66.7516 7.50668 65.8983 6.99335 65.3516 6.34001C64.805 5.67335 64.5316 4.86001 64.5316 3.90001C64.5316 2.79335 64.9316 1.90001 65.7316 1.22001C66.5316 0.540012 67.6316 0.200012 69.0316 0.200012C70.3916 0.200012 71.485 0.553345 72.3116 1.26001C73.1383 1.95334 73.565 2.92001 73.5916 4.16001H71.3316C71.3316 3.82668 71.2383 3.50668 71.0516 3.20001C70.865 2.88001 70.5983 2.62001 70.2516 2.42001C69.905 2.20668 69.4783 2.10001 68.9716 2.10001C68.345 2.08668 67.8183 2.24001 67.3916 2.56001C66.965 2.86668 66.7516 3.28668 66.7516 3.82001C66.7516 4.47335 67.0116 4.98668 67.5316 5.36001C68.0516 5.72001 68.8983 6.09335 70.0716 6.48001C70.805 6.72001 71.4516 7.01335 72.0116 7.36001C72.585 7.69335 73.0316 8.12668 73.3516 8.66001C73.685 9.18001 73.8516 9.84668 73.8516 10.66C73.8516 11.4067 73.665 12.0867 73.2916 12.7C72.9183 13.3 72.3783 13.78 71.6716 14.14C70.9783 14.5 70.1383 14.68 69.1516 14.68Z" fill="#212121"/>
<path d="M5.18288 14.68C4.19621 14.68 3.32955 14.5 2.58288 14.14C1.84955 13.78 1.26955 13.2667 0.842881 12.6C0.429548 11.9333 0.216214 11.14 0.202881 10.22H2.44288C2.45621 10.9267 2.69621 11.5333 3.16288 12.04C3.64288 12.5333 4.30955 12.78 5.16288 12.78C5.94955 12.78 6.56288 12.6 7.00288 12.24C7.44288 11.8667 7.66288 11.3867 7.66288 10.8C7.66288 10.3067 7.52955 9.90001 7.26288 9.58001C7.00955 9.24668 6.60955 8.95335 6.06288 8.70001C5.51621 8.43335 4.80955 8.16001 3.94288 7.88001C2.78288 7.50668 1.92955 6.99335 1.38288 6.34001C0.836214 5.67335 0.562881 4.86001 0.562881 3.90001C0.562881 2.79335 0.962881 1.90001 1.76288 1.22001C2.56288 0.540012 3.66288 0.200012 5.06288 0.200012C6.42288 0.200012 7.51621 0.553345 8.34288 1.26001C9.16955 1.95334 9.59621 2.92001 9.62288 4.16001H7.36288C7.36288 3.82668 7.26955 3.50668 7.08288 3.20001C6.89621 2.88001 6.62955 2.62001 6.28288 2.42001C5.93621 2.20668 5.50955 2.10001 5.00288 2.10001C4.37621 2.08668 3.84955 2.24001 3.42288 2.56001C2.99621 2.86668 2.78288 3.28668 2.78288 3.82001C2.78288 4.47335 3.04288 4.98668 3.56288 5.36001C4.08288 5.72001 4.92955 6.09335 6.10288 6.48001C6.83621 6.72001 7.48288 7.01335 8.04288 7.36001C8.61621 7.69335 9.06288 8.12668 9.38288 8.66001C9.71622 9.18001 9.88288 9.84668 9.88288 10.66C9.88288 11.4067 9.69621 12.0867 9.32288 12.7C8.94955 13.3 8.40955 13.78 7.70288 14.14C7.00955 14.5 6.16955 14.68 5.18288 14.68Z" stroke="#212121" stroke-width="0.4" mask="url(#path-1-outside-1_453_214)"/>
<path d="M16.4551 14.44V0.440012H21.1951C22.2617 0.440012 23.1417 0.626678 23.8351 1.00001C24.5284 1.36001 25.0417 1.86001 25.3751 2.50001C25.7084 3.14001 25.8751 3.87335 25.8751 4.70001C25.8751 5.52668 25.7084 6.26001 25.3751 6.90001C25.0417 7.54001 24.5284 8.04668 23.8351 8.42001C23.1417 8.78001 22.2617 8.96001 21.1951 8.96001H18.5751V14.44H16.4551ZM18.5751 7.06001H21.0951C22.0017 7.06001 22.6617 6.84668 23.0751 6.42001C23.5017 5.99335 23.7151 5.42001 23.7151 4.70001C23.7151 3.99335 23.5017 3.42668 23.0751 3.00001C22.6617 2.56001 22.0017 2.34001 21.0951 2.34001H18.5751V7.06001Z" stroke="#212121" stroke-width="0.4" mask="url(#path-1-outside-1_453_214)"/>
<path d="M37.0273 14.68C35.8939 14.68 34.9139 14.3867 34.0873 13.8C33.2606 13.2133 32.6273 12.38 32.1873 11.3C31.7473 10.22 31.5273 8.93335 31.5273 7.44001C31.5273 5.94668 31.7473 4.66001 32.1873 3.58001C32.6273 2.50001 33.2606 1.66668 34.0873 1.08001C34.9139 0.493345 35.8939 0.200012 37.0273 0.200012C38.1739 0.200012 39.1539 0.493345 39.9673 1.08001C40.7939 1.66668 41.4273 2.50001 41.8673 3.58001C42.3073 4.66001 42.5273 5.94668 42.5273 7.44001C42.5273 8.93335 42.3073 10.22 41.8673 11.3C41.4273 12.38 40.7939 13.2133 39.9673 13.8C39.1539 14.3867 38.1739 14.68 37.0273 14.68ZM37.0273 12.68C38.0273 12.68 38.8339 12.2333 39.4473 11.34C40.0606 10.4333 40.3673 9.13335 40.3673 7.44001C40.3673 5.74668 40.0606 4.45335 39.4473 3.56001C38.8339 2.65334 38.0273 2.20001 37.0273 2.20001C36.0139 2.20001 35.2006 2.65334 34.5873 3.56001C33.9873 4.45335 33.6873 5.74668 33.6873 7.44001C33.6873 9.13335 33.9873 10.4333 34.5873 11.34C35.2006 12.2333 36.0139 12.68 37.0273 12.68Z" stroke="#212121" stroke-width="0.4" mask="url(#path-1-outside-1_453_214)"/>
<path d="M51.9594 14.44V2.34001H48.1994V0.440012H57.8394V2.34001H54.0794V14.44H51.9594Z" stroke="#212121" stroke-width="0.4" mask="url(#path-1-outside-1_453_214)"/>
<path d="M69.1516 14.68C68.165 14.68 67.2983 14.5 66.5516 14.14C65.8183 13.78 65.2383 13.2667 64.8116 12.6C64.3983 11.9333 64.185 11.14 64.1716 10.22H66.4116C66.425 10.9267 66.665 11.5333 67.1316 12.04C67.6116 12.5333 68.2783 12.78 69.1316 12.78C69.9183 12.78 70.5316 12.6 70.9716 12.24C71.4116 11.8667 71.6316 11.3867 71.6316 10.8C71.6316 10.3067 71.4983 9.90001 71.2316 9.58001C70.9783 9.24668 70.5783 8.95335 70.0316 8.70001C69.485 8.43335 68.7783 8.16001 67.9116 7.88001C66.7516 7.50668 65.8983 6.99335 65.3516 6.34001C64.805 5.67335 64.5316 4.86001 64.5316 3.90001C64.5316 2.79335 64.9316 1.90001 65.7316 1.22001C66.5316 0.540012 67.6316 0.200012 69.0316 0.200012C70.3916 0.200012 71.485 0.553345 72.3116 1.26001C73.1383 1.95334 73.565 2.92001 73.5916 4.16001H71.3316C71.3316 3.82668 71.2383 3.50668 71.0516 3.20001C70.865 2.88001 70.5983 2.62001 70.2516 2.42001C69.905 2.20668 69.4783 2.10001 68.9716 2.10001C68.345 2.08668 67.8183 2.24001 67.3916 2.56001C66.965 2.86668 66.7516 3.28668 66.7516 3.82001C66.7516 4.47335 67.0116 4.98668 67.5316 5.36001C68.0516 5.72001 68.8983 6.09335 70.0716 6.48001C70.805 6.72001 71.4516 7.01335 72.0116 7.36001C72.585 7.69335 73.0316 8.12668 73.3516 8.66001C73.685 9.18001 73.8516 9.84668 73.8516 10.66C73.8516 11.4067 73.665 12.0867 73.2916 12.7C72.9183 13.3 72.3783 13.78 71.6716 14.14C70.9783 14.5 70.1383 14.68 69.1516 14.68Z" stroke="#212121" stroke-width="0.4" mask="url(#path-1-outside-1_453_214)"/>
</svg>
